# Blender v2.91.0 OBJ File: 'model.blend'
# www.blender.org
mtllib modelEye.mtl
o Cylinder
v 0.000000 0.450000 -0.860000
v 0.000000 0.450000 1.140000
v 0.037655 0.448422 -0.860000
v 0.037655 0.448422 1.140000
v 0.075046 0.443698 -0.860000
v 0.075046 0.443698 1.140000
v 0.111910 0.435862 -0.860000
v 0.111910 0.435862 1.140000
v 0.147990 0.424969 -0.860000
v 0.147990 0.424969 1.140000
v 0.183031 0.411095 -0.860000
v 0.183031 0.411095 1.140000
v 0.216789 0.394338 -0.860000
v 0.216789 0.394338 1.140000
v 0.249026 0.374815 -0.860000
v 0.249026 0.374815 1.140000
v 0.279517 0.352662 -0.860000
v 0.279517 0.352662 1.140000
v 0.308046 0.328036 -0.860000
v 0.308046 0.328036 1.140000
v 0.334415 0.301109 -0.860000
v 0.334415 0.301109 1.140000
v 0.358438 0.272070 -0.860000
v 0.358438 0.272070 1.140000
v 0.379948 0.241122 -0.860000
v 0.379948 0.241122 1.140000
v 0.398792 0.208483 -0.860000
v 0.398792 0.208483 1.140000
v 0.414838 0.174382 -0.860000
v 0.414838 0.174382 1.140000
v 0.427975 0.139058 -0.860000
v 0.427975 0.139058 1.140000
v 0.438110 0.102758 -0.860000
v 0.438110 0.102758 1.140000
v 0.445173 0.065737 -0.860000
v 0.445173 0.065737 1.140000
v 0.449112 0.028256 -0.860000
v 0.449112 0.028256 1.140000
v 0.449901 -0.009424 -0.860000
v 0.449901 -0.009424 1.140000
v 0.447535 -0.047038 -0.860000
v 0.447535 -0.047038 1.140000
v 0.442029 -0.084321 -0.860000
v 0.442029 -0.084321 1.140000
v 0.433423 -0.121014 -0.860000
v 0.433423 -0.121014 1.140000
v 0.421777 -0.156857 -0.860000
v 0.421777 -0.156857 1.140000
v 0.407172 -0.191600 -0.860000
v 0.407172 -0.191601 1.140000
v 0.389712 -0.225000 -0.860000
v 0.389712 -0.225000 1.140000
v 0.369517 -0.256821 -0.860000
v 0.369517 -0.256821 1.140000
v 0.346731 -0.286841 -0.860000
v 0.346731 -0.286841 1.140000
v 0.321513 -0.314848 -0.860000
v 0.321513 -0.314848 1.140000
v 0.294039 -0.340648 -0.860000
v 0.294039 -0.340648 1.140000
v 0.264504 -0.364057 -0.860000
v 0.264504 -0.364057 1.140000
v 0.233112 -0.384914 -0.860000
v 0.233112 -0.384914 1.140000
v 0.200086 -0.403070 -0.860000
v 0.200086 -0.403070 1.140000
v 0.165656 -0.418399 -0.860000
v 0.165656 -0.418399 1.140000
v 0.130065 -0.430794 -0.860000
v 0.130065 -0.430794 1.140000
v 0.093561 -0.440166 -0.860000
v 0.093561 -0.440166 1.140000
v 0.056400 -0.446452 -0.860000
v 0.056400 -0.446452 1.140000
v 0.018844 -0.449605 -0.860000
v 0.018844 -0.449605 1.140000
v -0.018844 -0.449605 -0.860000
v -0.018844 -0.449605 1.140000
v -0.056399 -0.446452 -0.860000
v -0.056399 -0.446452 1.140000
v -0.093560 -0.440166 -0.860000
v -0.093560 -0.440167 1.140000
v -0.130064 -0.430794 -0.860000
v -0.130064 -0.430794 1.140000
v -0.165656 -0.418400 -0.860000
v -0.165656 -0.418400 1.140000
v -0.200085 -0.403071 -0.860000
v -0.200085 -0.403071 1.140000
v -0.233112 -0.384914 -0.860000
v -0.233112 -0.384914 1.140000
v -0.264503 -0.364058 -0.860000
v -0.264503 -0.364058 1.140000
v -0.294039 -0.340648 -0.860000
v -0.294039 -0.340648 1.140000
v -0.321512 -0.314849 -0.860000
v -0.321512 -0.314849 1.140000
v -0.346731 -0.286841 -0.860000
v -0.346731 -0.286841 1.140000
v -0.369517 -0.256821 -0.860000
v -0.369517 -0.256822 1.140000
v -0.389711 -0.225000 -0.860000
v -0.389711 -0.225000 1.140000
v -0.407172 -0.191601 -0.860000
v -0.407172 -0.191601 1.140000
v -0.421777 -0.156858 -0.860000
v -0.421777 -0.156858 1.140000
v -0.433423 -0.121014 -0.860000
v -0.433423 -0.121014 1.140000
v -0.442029 -0.084322 -0.860000
v -0.442029 -0.084322 1.140000
v -0.447535 -0.047038 -0.860000
v -0.447535 -0.047038 1.140000
v -0.449901 -0.009424 -0.860000
v -0.449901 -0.009424 1.140000
v -0.449112 0.028256 -0.860000
v -0.449112 0.028256 1.140000
v -0.445172 0.065738 -0.860000
v -0.445172 0.065738 1.140000
v -0.438110 0.102758 -0.860000
v -0.438110 0.102758 1.140000
v -0.427975 0.139058 -0.860000
v -0.427975 0.139058 1.140000
v -0.414838 0.174383 -0.860000
v -0.414838 0.174382 1.140000
v -0.398791 0.208484 -0.860000
v -0.398791 0.208484 1.140000
v -0.379947 0.241123 -0.860000
v -0.379947 0.241123 1.140000
v -0.358438 0.272070 -0.860000
v -0.358438 0.272070 1.140000
v -0.334415 0.301109 -0.860000
v -0.334415 0.301109 1.140000
v -0.308045 0.328037 -0.860000
v -0.308045 0.328037 1.140000
v -0.279516 0.352663 -0.860000
v -0.279516 0.352663 1.140000
v -0.249025 0.374815 -0.860000
v -0.249025 0.374815 1.140000
v -0.216788 0.394339 -0.860000
v -0.216788 0.394339 1.140000
v -0.183030 0.411096 -0.860000
v -0.183030 0.411096 1.140000
v -0.147989 0.424970 -0.860000
v -0.147989 0.424970 1.140000
v -0.111909 0.435863 -0.860000
v -0.111909 0.435863 1.140000
v -0.075044 0.443699 -0.860000
v -0.075044 0.443698 1.140000
v -0.037653 0.448422 -0.860000
v -0.037653 0.448422 1.140000
vt 1.000000 0.500000
vt 1.000000 1.000000
vt 0.986667 1.000000
vt 0.986667 0.500000
vt 0.973333 1.000000
vt 0.973333 0.500000
vt 0.960000 1.000000
vt 0.960000 0.500000
vt 0.946667 1.000000
vt 0.946667 0.500000
vt 0.933333 1.000000
vt 0.933333 0.500000
vt 0.920000 1.000000
vt 0.920000 0.500000
vt 0.906667 1.000000
vt 0.906667 0.500000
vt 0.893333 1.000000
vt 0.893333 0.500000
vt 0.880000 1.000000
vt 0.880000 0.500000
vt 0.866667 1.000000
vt 0.866667 0.500000
vt 0.853333 1.000000
vt 0.853333 0.500000
vt 0.840000 1.000000
vt 0.840000 0.500000
vt 0.826667 1.000000
vt 0.826667 0.500000
vt 0.813334 1.000000
vt 0.813334 0.500000
vt 0.800000 1.000000
vt 0.800000 0.500000
vt 0.786667 1.000000
vt 0.786667 0.500000
vt 0.773334 1.000000
vt 0.773334 0.500000
vt 0.760000 1.000000
vt 0.760000 0.500000
vt 0.746667 1.000000
vt 0.746667 0.500000
vt 0.733334 1.000000
vt 0.733334 0.500000
vt 0.720000 1.000000
vt 0.720000 0.500000
vt 0.706667 1.000000
vt 0.706667 0.500000
vt 0.693334 1.000000
vt 0.693334 0.500000
vt 0.680000 1.000000
vt 0.680000 0.500000
vt 0.666667 1.000000
vt 0.666667 0.500000
vt 0.653334 1.000000
vt 0.653334 0.500000
vt 0.640000 1.000000
vt 0.640000 0.500000
vt 0.626667 1.000000
vt 0.626667 0.500000
vt 0.613334 1.000000
vt 0.613334 0.500000
vt 0.600000 1.000000
vt 0.600000 0.500000
vt 0.586667 1.000000
vt 0.586667 0.500000
vt 0.573334 1.000000
vt 0.573334 0.500000
vt 0.560000 1.000000
vt 0.560000 0.500000
vt 0.546667 1.000000
vt 0.546667 0.500000
vt 0.533334 1.000000
vt 0.533334 0.500000
vt 0.520000 1.000000
vt 0.520000 0.500000
vt 0.506667 1.000000
vt 0.506667 0.500000
vt 0.493334 1.000000
vt 0.493334 0.500000
vt 0.480000 1.000000
vt 0.480000 0.500000
vt 0.466667 1.000000
vt 0.466667 0.500000
vt 0.453334 1.000000
vt 0.453334 0.500000
vt 0.440001 1.000000
vt 0.440001 0.500000
vt 0.426667 1.000000
vt 0.426667 0.500000
vt 0.413334 1.000000
vt 0.413334 0.500000
vt 0.400001 1.000000
vt 0.400001 0.500000
vt 0.386667 1.000000
vt 0.386667 0.500000
vt 0.373334 1.000000
vt 0.373334 0.500000
vt 0.360001 1.000000
vt 0.360001 0.500000
vt 0.346667 1.000000
vt 0.346667 0.500000
vt 0.333334 1.000000
vt 0.333334 0.500000
vt 0.320001 1.000000
vt 0.320001 0.500000
vt 0.306667 1.000000
vt 0.306667 0.500000
vt 0.293334 1.000000
vt 0.293334 0.500000
vt 0.280001 1.000000
vt 0.280001 0.500000
vt 0.266667 1.000000
vt 0.266667 0.500000
vt 0.253334 1.000000
vt 0.253334 0.500000
vt 0.240001 1.000000
vt 0.240001 0.500000
vt 0.226667 1.000000
vt 0.226667 0.500000
vt 0.213334 1.000000
vt 0.213334 0.500000
vt 0.200001 1.000000
vt 0.200001 0.500000
vt 0.186667 1.000000
vt 0.186667 0.500000
vt 0.173334 1.000000
vt 0.173334 0.500000
vt 0.160001 1.000000
vt 0.160001 0.500000
vt 0.146667 1.000000
vt 0.146667 0.500000
vt 0.133334 1.000000
vt 0.133334 0.500000
vt 0.120001 1.000000
vt 0.120001 0.500000
vt 0.106667 1.000000
vt 0.106667 0.500000
vt 0.093334 1.000000
vt 0.093334 0.500000
vt 0.080001 1.000000
vt 0.080001 0.500000
vt 0.066667 1.000000
vt 0.066667 0.500000
vt 0.053334 1.000000
vt 0.053334 0.500000
vt 0.040001 1.000000
vt 0.040001 0.500000
vt 0.026667 1.000000
vt 0.026667 0.500000
vt 0.270083 0.489158
vt 0.250000 0.490000
vt 0.229918 0.489158
vt 0.209976 0.486639
vt 0.190315 0.482460
vt 0.171073 0.476651
vt 0.152384 0.469251
vt 0.134380 0.460314
vt 0.117187 0.449901
vt 0.100925 0.438087
vt 0.085709 0.424953
vt 0.071646 0.410592
vt 0.058833 0.395104
vt 0.047362 0.378599
vt 0.037311 0.361191
vt 0.028753 0.343004
vt 0.021747 0.324164
vt 0.016341 0.304804
vt 0.012575 0.285060
vt 0.010474 0.265070
vt 0.010053 0.244974
vt 0.011315 0.224913
vt 0.014251 0.205028
vt 0.018841 0.185459
vt 0.025052 0.166343
vt 0.032842 0.147813
vt 0.042154 0.130000
vt 0.052924 0.113029
vt 0.065077 0.097018
vt 0.078527 0.082081
vt 0.093179 0.068321
vt 0.108932 0.055836
vt 0.125674 0.044712
vt 0.143288 0.035029
vt 0.161650 0.026854
vt 0.180633 0.020243
vt 0.200101 0.015245
vt 0.219920 0.011892
vt 0.239950 0.010210
vt 0.260050 0.010211
vt 0.280080 0.011892
vt 0.299899 0.015245
vt 0.319368 0.020243
vt 0.338350 0.026854
vt 0.356713 0.035029
vt 0.374327 0.044713
vt 0.391069 0.055836
vt 0.406821 0.068321
vt 0.421474 0.082081
vt 0.434923 0.097018
vt 0.447076 0.113029
vt 0.457846 0.130000
vt 0.467159 0.147813
vt 0.474948 0.166343
vt 0.481159 0.185459
vt 0.485749 0.205029
vt 0.488685 0.224913
vt 0.489947 0.244974
vt 0.489526 0.265070
vt 0.487425 0.285060
vt 0.483659 0.304804
vt 0.478254 0.324164
vt 0.471247 0.343004
vt 0.462689 0.361191
vt 0.452639 0.378598
vt 0.441167 0.395104
vt 0.428355 0.410591
vt 0.414291 0.424952
vt 0.399075 0.438086
vt 0.382814 0.449901
vt 0.365621 0.460314
vt 0.347617 0.469251
vt 0.328928 0.476650
vt 0.309686 0.482460
vt 0.290024 0.486639
vt 0.013334 1.000000
vt 0.013334 0.500000
vt 0.000001 1.000000
vt 0.000001 0.500000
vt 0.750000 0.490000
vt 0.770083 0.489158
vt 0.790025 0.486639
vt 0.809686 0.482460
vt 0.828928 0.476650
vt 0.847617 0.469251
vt 0.865621 0.460314
vt 0.882814 0.449901
vt 0.899076 0.438086
vt 0.914291 0.424952
vt 0.928355 0.410591
vt 0.941167 0.395104
vt 0.952639 0.378598
vt 0.962689 0.361191
vt 0.971247 0.343004
vt 0.978254 0.324164
vt 0.983659 0.304804
vt 0.987425 0.285060
vt 0.989526 0.265070
vt 0.989947 0.244974
vt 0.988685 0.224913
vt 0.985749 0.205029
vt 0.981159 0.185459
vt 0.974948 0.166343
vt 0.967159 0.147813
vt 0.957846 0.130000
vt 0.947076 0.113029
vt 0.934923 0.097018
vt 0.921474 0.082081
vt 0.906821 0.068321
vt 0.891069 0.055836
vt 0.874327 0.044713
vt 0.856713 0.035029
vt 0.838350 0.026854
vt 0.819368 0.020243
vt 0.799899 0.015245
vt 0.780080 0.011892
vt 0.760050 0.010211
vt 0.739950 0.010210
vt 0.719920 0.011892
vt 0.700101 0.015245
vt 0.680633 0.020243
vt 0.661650 0.026854
vt 0.643288 0.035029
vt 0.625674 0.044712
vt 0.608932 0.055836
vt 0.593179 0.068321
vt 0.578527 0.082081
vt 0.565077 0.097018
vt 0.552924 0.113029
vt 0.542154 0.130000
vt 0.532842 0.147813
vt 0.525052 0.166343
vt 0.518841 0.185459
vt 0.514251 0.205028
vt 0.511315 0.224913
vt 0.510053 0.244974
vt 0.510474 0.265070
vt 0.512575 0.285060
vt 0.516341 0.304804
vt 0.521747 0.324164
vt 0.528753 0.343004
vt 0.537311 0.361191
vt 0.547361 0.378599
vt 0.558833 0.395104
vt 0.571646 0.410592
vt 0.585709 0.424953
vt 0.600925 0.438087
vt 0.617187 0.449901
vt 0.634380 0.460314
vt 0.652384 0.469251
vt 0.671073 0.476651
vt 0.690315 0.482460
vt 0.709976 0.486639
vt 0.729918 0.489158
vn 0.0419 0.9991 0.0000
vn 0.1253 0.9921 0.0000
vn 0.2079 0.9781 0.0000
vn 0.2890 0.9573 0.0000
vn 0.3681 0.9298 0.0000
vn 0.4446 0.8957 0.0000
vn 0.5180 0.8554 0.0000
vn 0.5878 0.8090 0.0000
vn 0.6534 0.7570 0.0000
vn 0.7145 0.6997 0.0000
vn 0.7705 0.6374 0.0000
vn 0.8211 0.5707 0.0000
vn 0.8660 0.5000 0.0000
vn 0.9048 0.4258 0.0000
vn 0.9373 0.3486 0.0000
vn 0.9632 0.2689 0.0000
vn 0.9823 0.1874 0.0000
vn 0.9945 0.1045 0.0000
vn 0.9998 0.0209 0.0000
vn 0.9980 -0.0628 -0.0000
vn 0.9893 -0.1461 -0.0000
vn 0.9736 -0.2284 -0.0000
vn 0.9511 -0.3090 -0.0000
vn 0.9219 -0.3875 -0.0000
vn 0.8862 -0.4633 -0.0000
vn 0.8443 -0.5358 -0.0000
vn 0.7965 -0.6046 -0.0000
vn 0.7431 -0.6691 -0.0000
vn 0.6845 -0.7290 -0.0000
vn 0.6211 -0.7837 -0.0000
vn 0.5534 -0.8329 -0.0000
vn 0.4818 -0.8763 -0.0000
vn 0.4067 -0.9135 -0.0000
vn 0.3289 -0.9444 -0.0000
vn 0.2487 -0.9686 -0.0000
vn 0.1668 -0.9860 -0.0000
vn 0.0837 -0.9965 -0.0000
vn 0.0000 -1.0000 -0.0000
vn -0.0837 -0.9965 -0.0000
vn -0.1668 -0.9860 -0.0000
vn -0.2487 -0.9686 -0.0000
vn -0.3289 -0.9444 -0.0000
vn -0.4067 -0.9135 -0.0000
vn -0.4818 -0.8763 -0.0000
vn -0.5534 -0.8329 -0.0000
vn -0.6211 -0.7837 -0.0000
vn -0.6845 -0.7290 -0.0000
vn -0.7431 -0.6691 -0.0000
vn -0.7965 -0.6046 -0.0000
vn -0.8443 -0.5358 -0.0000
vn -0.8862 -0.4633 -0.0000
vn -0.9219 -0.3875 -0.0000
vn -0.9511 -0.3090 -0.0000
vn -0.9736 -0.2284 -0.0000
vn -0.9893 -0.1461 -0.0000
vn -0.9980 -0.0628 -0.0000
vn -0.9998 0.0209 0.0000
vn -0.9945 0.1045 0.0000
vn -0.9823 0.1874 0.0000
vn -0.9632 0.2689 0.0000
vn -0.9373 0.3486 0.0000
vn -0.9048 0.4258 0.0000
vn -0.8660 0.5000 0.0000
vn -0.8211 0.5707 0.0000
vn -0.7705 0.6374 0.0000
vn -0.7145 0.6997 0.0000
vn -0.6534 0.7570 0.0000
vn -0.5878 0.8090 0.0000
vn -0.5180 0.8554 0.0000
vn -0.4446 0.8957 0.0000
vn -0.3681 0.9298 0.0000
vn -0.2890 0.9573 0.0000
vn -0.2079 0.9781 0.0000
vn -0.0000 0.0000 1.0000
vn -0.1253 0.9921 0.0000
vn -0.0419 0.9991 0.0000
vn 0.0000 0.0000 -1.0000
usemtl None
s off
f 1/1/1 2/2/1 4/3/1 3/4/1
f 3/4/2 4/3/2 6/5/2 5/6/2
f 5/6/3 6/5/3 8/7/3 7/8/3
f 7/8/4 8/7/4 10/9/4 9/10/4
f 9/10/5 10/9/5 12/11/5 11/12/5
f 11/12/6 12/11/6 14/13/6 13/14/6
f 13/14/7 14/13/7 16/15/7 15/16/7
f 15/16/8 16/15/8 18/17/8 17/18/8
f 17/18/9 18/17/9 20/19/9 19/20/9
f 19/20/10 20/19/10 22/21/10 21/22/10
f 21/22/11 22/21/11 24/23/11 23/24/11
f 23/24/12 24/23/12 26/25/12 25/26/12
f 25/26/13 26/25/13 28/27/13 27/28/13
f 27/28/14 28/27/14 30/29/14 29/30/14
f 29/30/15 30/29/15 32/31/15 31/32/15
f 31/32/16 32/31/16 34/33/16 33/34/16
f 33/34/17 34/33/17 36/35/17 35/36/17
f 35/36/18 36/35/18 38/37/18 37/38/18
f 37/38/19 38/37/19 40/39/19 39/40/19
f 39/40/20 40/39/20 42/41/20 41/42/20
f 41/42/21 42/41/21 44/43/21 43/44/21
f 43/44/22 44/43/22 46/45/22 45/46/22
f 45/46/23 46/45/23 48/47/23 47/48/23
f 47/48/24 48/47/24 50/49/24 49/50/24
f 49/50/25 50/49/25 52/51/25 51/52/25
f 51/52/26 52/51/26 54/53/26 53/54/26
f 53/54/27 54/53/27 56/55/27 55/56/27
f 55/56/28 56/55/28 58/57/28 57/58/28
f 57/58/29 58/57/29 60/59/29 59/60/29
f 59/60/30 60/59/30 62/61/30 61/62/30
f 61/62/31 62/61/31 64/63/31 63/64/31
f 63/64/32 64/63/32 66/65/32 65/66/32
f 65/66/33 66/65/33 68/67/33 67/68/33
f 67/68/34 68/67/34 70/69/34 69/70/34
f 69/70/35 70/69/35 72/71/35 71/72/35
f 71/72/36 72/71/36 74/73/36 73/74/36
f 73/74/37 74/73/37 76/75/37 75/76/37
f 75/76/38 76/75/38 78/77/38 77/78/38
f 77/78/39 78/77/39 80/79/39 79/80/39
f 79/80/40 80/79/40 82/81/40 81/82/40
f 81/82/41 82/81/41 84/83/41 83/84/41
f 83/84/42 84/83/42 86/85/42 85/86/42
f 85/86/43 86/85/43 88/87/43 87/88/43
f 87/88/44 88/87/44 90/89/44 89/90/44
f 89/90/45 90/89/45 92/91/45 91/92/45
f 91/92/46 92/91/46 94/93/46 93/94/46
f 93/94/47 94/93/47 96/95/47 95/96/47
f 95/96/48 96/95/48 98/97/48 97/98/48
f 97/98/49 98/97/49 100/99/49 99/100/49
f 99/100/50 100/99/50 102/101/50 101/102/50
f 101/102/51 102/101/51 104/103/51 103/104/51
f 103/104/52 104/103/52 106/105/52 105/106/52
f 105/106/53 106/105/53 108/107/53 107/108/53
f 107/108/54 108/107/54 110/109/54 109/110/54
f 109/110/55 110/109/55 112/111/55 111/112/55
f 111/112/56 112/111/56 114/113/56 113/114/56
f 113/114/57 114/113/57 116/115/57 115/116/57
f 115/116/58 116/115/58 118/117/58 117/118/58
f 117/118/59 118/117/59 120/119/59 119/120/59
f 119/120/60 120/119/60 122/121/60 121/122/60
f 121/122/61 122/121/61 124/123/61 123/124/61
f 123/124/62 124/123/62 126/125/62 125/126/62
f 125/126/63 126/125/63 128/127/63 127/128/63
f 127/128/64 128/127/64 130/129/64 129/130/64
f 129/130/65 130/129/65 132/131/65 131/132/65
f 131/132/66 132/131/66 134/133/66 133/134/66
f 133/134/67 134/133/67 136/135/67 135/136/67
f 135/136/68 136/135/68 138/137/68 137/138/68
f 137/138/69 138/137/69 140/139/69 139/140/69
f 139/140/70 140/139/70 142/141/70 141/142/70
f 141/142/71 142/141/71 144/143/71 143/144/71
f 143/144/72 144/143/72 146/145/72 145/146/72
f 145/146/73 146/145/73 148/147/73 147/148/73
f 4/149/74 2/150/74 150/151/74 148/152/74 146/153/74 144/154/74 142/155/74 140/156/74 138/157/74 136/158/74 134/159/74 132/160/74 130/161/74 128/162/74 126/163/74 124/164/74 122/165/74 120/166/74 118/167/74 116/168/74 114/169/74 112/170/74 110/171/74 108/172/74 106/173/74 104/174/74 102/175/74 100/176/74 98/177/74 96/178/74 94/179/74 92/180/74 90/181/74 88/182/74 86/183/74 84/184/74 82/185/74 80/186/74 78/187/74 76/188/74 74/189/74 72/190/74 70/191/74 68/192/74 66/193/74 64/194/74 62/195/74 60/196/74 58/197/74 56/198/74 54/199/74 52/200/74 50/201/74 48/202/74 46/203/74 44/204/74 42/205/74 40/206/74 38/207/74 36/208/74 34/209/74 32/210/74 30/211/74 28/212/74 26/213/74 24/214/74 22/215/74 20/216/74 18/217/74 16/218/74 14/219/74 12/220/74 10/221/74 8/222/74 6/223/74
f 147/148/75 148/147/75 150/224/75 149/225/75
f 149/225/76 150/224/76 2/226/76 1/227/76
f 1/228/77 3/229/77 5/230/77 7/231/77 9/232/77 11/233/77 13/234/77 15/235/77 17/236/77 19/237/77 21/238/77 23/239/77 25/240/77 27/241/77 29/242/77 31/243/77 33/244/77 35/245/77 37/246/77 39/247/77 41/248/77 43/249/77 45/250/77 47/251/77 49/252/77 51/253/77 53/254/77 55/255/77 57/256/77 59/257/77 61/258/77 63/259/77 65/260/77 67/261/77 69/262/77 71/263/77 73/264/77 75/265/77 77/266/77 79/267/77 81/268/77 83/269/77 85/270/77 87/271/77 89/272/77 91/273/77 93/274/77 95/275/77 97/276/77 99/277/77 101/278/77 103/279/77 105/280/77 107/281/77 109/282/77 111/283/77 113/284/77 115/285/77 117/286/77 119/287/77 121/288/77 123/289/77 125/290/77 127/291/77 129/292/77 131/293/77 133/294/77 135/295/77 137/296/77 139/297/77 141/298/77 143/299/77 145/300/77 147/301/77 149/302/77
